# xmcd CD database file
#
# Track frame offsets:
#	150
#	38665
#	64429
#	97921
#	161360
#	192046
#	208075
#
# Disc length: 3177 seconds
#
# Revision: 0
# Processed by: cddbd v1.5.2PL0 Copyright (c) Steve Scherf et al.
# Submitted via: CDex 1.70beta2
#
DISCID=560c6707
DTITLE=Steve Coleman - Harvesting Semblances and Affinities
DYEAR=2010
DGENRE=Jazz
TTITLE0=Attila 02 (Dawning Ritual)
TTITLE1=Beba
TTITLE2=Clouds
TTITLE3=060706-2319 (Middle of Water)
TTITLE4=Flos Ut Rosa Floruit
TTITLE5=Attila 04 (Closing Ritual)
TTITLE6=Vernal Equinox 040320-0149 (Initiation)
EXTD=YEAR: 2010
EXTT0=
EXTT1=
EXTT2=
EXTT3=
EXTT4=
EXTT5=
EXTT6=
PLAYORDER=
